# xmcd
#
# Track frame offsets: 
#        150
#        26200
#        44002
#        64767
#        86787
#        118385
#        140995
#        164297
#        184615
#        203937
#
# Disc length: 2959 seconds
#
# Revision: 2
# Processed by: cddbd v1.5PL3 Copyright (c) Steve Scherf et al.
# Submitted via: ExactAudioCopy v0.95a3
#
DISCID=9e0b8d0a
DTITLE=William Topley - Black River
DYEAR=1997
DGENRE=
TTITLE0=The Ring
TTITLE1=Stabroek Women
TTITLE2=Drink Called love
TTITLE3=Sink Like A Stone
TTITLE4=Blackmail
TTITLE5=That's My Right
TTITLE6=Mannish Water
TTITLE7=Black River
TTITLE8=You Don't Love Me Anymore
TTITLE9=( I Don't Wanna Go ) Uptown
EXTD=
EXTT0=
EXTT1=
EXTT2=
EXTT3=
EXTT4=
EXTT5=
EXTT6=
EXTT7=
EXTT8=
EXTT9=
PLAYORDER=
